{
	"cameras":[{
		"type":"perspective",
		"perspective":{
			"znear":0.009999999776482582,
			"zfar":10000000000.0,
			"aspectRatio":1.7777777910232545,
			"yfov":0.5483348965644836
		}
	},
	{
		"type":"perspective",
		"perspective":{
			"znear":0.009999999776482582,
			"zfar":10000000000.0,
			"aspectRatio":1.7777777910232545,
			"yfov":0.5483348965644836
		}
	},
	{
		"type":"perspective",
		"perspective":{
			"znear":0.009999999776482582,
			"zfar":10000000000.0,
			"aspectRatio":1.7777777910232545,
			"yfov":0.5483348965644836
		}
	},
	{
		"type":"perspective",
		"perspective":{
			"znear":0.009999999776482582,
			"zfar":10000000000.0,
			"aspectRatio":1.7777777910232545,
			"yfov":0.2018122375011444
		}
	}],
	"asset":{
		"version":"2.0",
		"generator":"Created using the official Cinema 4D glTF Exporter 1.000x284978"
	},
	"scenes":[{
		"nodes":[0,
		12,
		13,
		14,
		15,
		16]
	}],
	"nodes":[{
		"name":"usb.flash",
		"translation":[-0.30000001192092898,
		-0.30000001192092898,
		0.0],
		"rotation":[1.2246468525851679e-16,
		1.0,
		6.123234262925839e-17,
		6.123234262925839e-17],
		"scale":[1.0,
		1.0,
		1.0],
		"children":[1]
	},
	{
		"name":"Boole",
		"translation":[16.4554443359375,
		16.10950469970703,
		0.0],
		"rotation":[0.0,
		-1.0,
		0.0,
		-6.123234262925839e-17],
		"scale":[1.0,
		1.0,
		1.0],
		"children":[2,
		10]
	},
	{
		"name":"Boole",
		"translation":[2.4747637953118595e-14,
		0.0,
		0.0],
		"rotation":[0.0,
		-1.2246468525851679e-16,
		0.0,
		-1.0],
		"scale":[1.0,
		1.0,
		1.0],
		"children":[3,
		9]
	},
	{
		"name":"Boole.1",
		"children":[4,
		6]
	},
	{
		"name":"body",
		"translation":[16.883028030395509,
		-16.103078842163087,
		0.0],
		"rotation":[0.0,
		-1.0,
		0.0,
		1.6081226229577292e-16],
		"scale":[1.0,
		1.0,
		1.0],
		"children":[5]
	},
	{
		"name":"body",
		"mesh":0
	},
	{
		"name":"Boole",
		"children":[7,
		8]
	},
	{
		"name":"down-1",
		"translation":[16.883028030395509,
		-16.103078842163087,
		0.5124568343162537],
		"rotation":[0.0,
		-4.440892098500626e-16,
		0.0,
		-1.0],
		"scale":[1.0,
		1.0,
		1.0],
		"mesh":1
	},
	{
		"name":"down-2.1",
		"translation":[16.883028030395509,
		-16.103078842163087,
		1.8338863849639893],
		"rotation":[0.0,
		-4.898587410340671e-16,
		0.0,
		-1.0],
		"scale":[1.0,
		1.0,
		1.0],
		"mesh":2
	},
	{
		"name":"down-3.1",
		"translation":[16.883028030395509,
		-16.103078842163087,
		1.3693957328796387],
		"rotation":[0.0,
		-6.123233998228043e-16,
		0.0,
		-1.0],
		"scale":[1.0,
		1.0,
		1.0],
		"mesh":3
	},
	{
		"name":"Extrude",
		"translation":[22.406902313232423,
		-16.070873260498048,
		-0.020746219903230668],
		"rotation":[0.0,
		-1.0,
		0.0,
		3.82856880455694e-16],
		"scale":[1.0,
		1.0,
		1.0],
		"children":[11]
	},
	{
		"name":"Extrude",
		"mesh":4
	},
	{
		"name":"Camera.1",
		"translation":[16.060213088989259,
		0.8873664140701294,
		27.547311782836915],
		"rotation":[-0.08255794644355774,
		-0.33107027411460879,
		0.029091428965330125,
		-0.9395372867584229],
		"scale":[1.0,
		1.0,
		1.0],
		"camera":0
	},
	{
		"name":"Camera",
		"translation":[0.039420392364263538,
		0.2937205731868744,
		-15.030965805053711],
		"rotation":[0.7071067690849304,
		-0.7071067690849304,
		4.329780301713277e-17,
		-4.329780301713277e-17],
		"scale":[1.0,
		1.0,
		1.0],
		"camera":1
	},
	{
		"name":"up",
		"translation":[-438.5035705566406,
		579.0881958007813,
		76.77470397949219],
		"rotation":[-0.7071067690849304,
		8.659560603426554e-17,
		8.659560603426554e-17,
		0.7071067690849304],
		"scale":[1.0,
		1.0,
		1.0],
		"camera":2
	},
	{
		"name":"двиги",
		"translation":[-428.5968933105469,
		347.5978698730469,
		842.80712890625],
		"rotation":[-0.06718054413795471,
		-0.00184926250949502,
		-0.00012451598013285547,
		0.9977391362190247],
		"scale":[1.0,
		1.0,
		1.0],
		"camera":3
	},
	{
		"name":"target",
		"translation":[-425.75250244140627,
		243.7960662841797,
		75.4951400756836],
		"rotation":[0.0,
		0.0,
		0.0,
		-1.0],
		"scale":[1.0,
		1.0,
		1.0],
		"mesh":5
	}],
	"meshes":[{
		"name":"body",
		"primitives":[{
			"attributes":{
				"POSITION":3,
				"TEXCOORD_0":4
			},
			"indices":2,
			"material":0
		}]
	},
	{
		"name":"down-1",
		"primitives":[{
			"attributes":{
				"POSITION":6,
				"TEXCOORD_0":7
			},
			"indices":5,
			"material":1
		}]
	},
	{
		"name":"down-2.1",
		"primitives":[{
			"attributes":{
				"POSITION":9,
				"TEXCOORD_0":10
			},
			"indices":8,
			"material":2
		}]
	},
	{
		"name":"down-3.1",
		"primitives":[{
			"attributes":{
				"POSITION":12,
				"TEXCOORD_0":13
			},
			"indices":11,
			"material":1
		}]
	},
	{
		"name":"Extrude",
		"primitives":[{
			"attributes":{
				"POSITION":15,
				"NORMAL":16,
				"TEXCOORD_0":17
			},
			"indices":14,
			"material":3
		}]
	},
	{
		"name":"target",
		"primitives":[{
			"attributes":{
				"POSITION":23,
				"NORMAL":24,
				"TEXCOORD_0":25
			},
			"indices":22
		}]
	}],
	"accessors":[{
		"bufferView":0,
		"type":"SCALAR",
		"componentType":5126,
		"count":301,
		"min":[0.0],
		"byteOffset":0,
		"max":[10.0]
	},
	{
		"bufferView":0,
		"type":"VEC4",
		"componentType":5126,
		"count":301,
		"min":[1.2246468525851679e-16,
		-0.973158061504364,
		-0.9868170619010925,
		-0.20352166891098023],
		"byteOffset":1204,
		"max":[0.5295958518981934,
		1.0,
		0.9967229962348938,
		0.587610125541687]
	},
	{
		"bufferView":1,
		"type":"SCALAR",
		"componentType":5123,
		"count":654,
		"min":[0],
		"byteOffset":0,
		"max":[221]
	},
	{
		"bufferView":2,
		"type":"VEC3",
		"componentType":5126,
		"count":222,
		"min":[-2.066009044647217,
		-1.5297925472259522,
		-0.9129304885864258],
		"byteOffset":0,
		"max":[2.066009044647217,
		1.5297925472259522,
		1.3062345801360953e-14]
	},
	{
		"bufferView":2,
		"type":"VEC2",
		"componentType":5126,
		"count":222,
		"min":[0.0,
		0.0],
		"byteOffset":12,
		"max":[1.0,
		1.0]
	},
	{
		"bufferView":3,
		"type":"SCALAR",
		"componentType":5123,
		"count":192,
		"min":[0],
		"byteOffset":0,
		"max":[71]
	},
	{
		"bufferView":4,
		"type":"VEC3",
		"componentType":5126,
		"count":72,
		"min":[-1.9693905115127564,
		-0.9340108036994934,
		-0.5124568343162537],
		"byteOffset":0,
		"max":[-0.832545280456543,
		0.9340108036994934,
		0.4004736542701721]
	},
	{
		"bufferView":4,
		"type":"VEC2",
		"componentType":5126,
		"count":72,
		"min":[0.0,
		0.0],
		"byteOffset":12,
		"max":[1.0,
		1.0]
	},
	{
		"bufferView":5,
		"type":"SCALAR",
		"componentType":5123,
		"count":96,
		"min":[0],
		"byteOffset":0,
		"max":[35]
	},
	{
		"bufferView":6,
		"type":"VEC3",
		"componentType":5126,
		"count":36,
		"min":[-1.6103079319000245,
		-0.7045258283615112,
		-1.8258609771728516],
		"byteOffset":0,
		"max":[-1.191627860069275,
		0.7045258283615112,
		-0.9209558963775635]
	},
	{
		"bufferView":6,
		"type":"VEC2",
		"componentType":5126,
		"count":36,
		"min":[0.0,
		0.0],
		"byteOffset":12,
		"max":[1.0,
		1.0]
	},
	{
		"bufferView":7,
		"type":"SCALAR",
		"componentType":5123,
		"count":96,
		"min":[0],
		"byteOffset":0,
		"max":[39]
	},
	{
		"bufferView":8,
		"type":"VEC3",
		"componentType":5126,
		"count":40,
		"min":[-1.513689398765564,
		-0.6079073548316956,
		-1.361370325088501],
		"byteOffset":0,
		"max":[-1.2882463932037354,
		0.6079073548316956,
		-0.4564652442932129]
	},
	{
		"bufferView":8,
		"type":"VEC2",
		"componentType":5126,
		"count":40,
		"min":[0.0,
		0.25],
		"byteOffset":12,
		"max":[1.0,
		0.7456045150756836]
	},
	{
		"bufferView":9,
		"type":"SCALAR",
		"componentType":5123,
		"count":366,
		"min":[0],
		"byteOffset":0,
		"max":[203]
	},
	{
		"bufferView":10,
		"type":"VEC3",
		"componentType":5126,
		"count":204,
		"min":[4.228424549102783,
		-1.0240203142166138,
		-0.37759172916412356],
		"byteOffset":0,
		"max":[5.841889381408691,
		0.7504661083221436,
		-0.020746219903230668]
	},
	{
		"bufferView":10,
		"type":"VEC3",
		"componentType":5126,
		"count":204,
		"min":[-0.9999582767486572,
		-0.9999593496322632,
		-0.009147516451776028],
		"byteOffset":12,
		"max":[0.9999582767486572,
		0.9999593496322632,
		0.9999175667762756]
	},
	{
		"bufferView":10,
		"type":"VEC2",
		"componentType":5126,
		"count":204,
		"min":[0.0,
		0.0],
		"byteOffset":24,
		"max":[1.0,
		1.0]
	},
	{
		"bufferView":11,
		"type":"SCALAR",
		"componentType":5126,
		"count":301,
		"min":[0.0],
		"byteOffset":0,
		"max":[10.0]
	},
	{
		"bufferView":11,
		"type":"VEC3",
		"componentType":5126,
		"count":301,
		"min":[-1184.0216064453126,
		347.5978698730469,
		-667.1927490234375],
		"byteOffset":1204,
		"max":[325.8750915527344,
		347.5978698730469,
		842.8072509765625]
	},
	{
		"bufferView":12,
		"type":"SCALAR",
		"componentType":5126,
		"count":301,
		"min":[0.0],
		"byteOffset":0,
		"max":[10.0]
	},
	{
		"bufferView":12,
		"type":"VEC4",
		"componentType":5126,
		"count":301,
		"min":[-0.06718110293149948,
		-0.9975880980491638,
		-0.06937611848115921,
		-0.9977406859397888],
		"byteOffset":1204,
		"max":[0.06718402355909348,
		-0.00039202006882987916,
		-0.000026396304747322575,
		0.9977402687072754]
	},
	{
		"bufferView":13,
		"type":"SCALAR",
		"componentType":5123,
		"count":36,
		"min":[0],
		"byteOffset":0,
		"max":[23]
	},
	{
		"bufferView":14,
		"type":"VEC3",
		"componentType":5126,
		"count":24,
		"min":[-5.599999904632568,
		-5.599999904632568,
		-5.599999904632568],
		"byteOffset":0,
		"max":[5.599999904632568,
		5.599999904632568,
		5.599999904632568]
	},
	{
		"bufferView":14,
		"type":"VEC3",
		"componentType":5126,
		"count":24,
		"min":[-1.0,
		-1.0,
		-1.0],
		"byteOffset":12,
		"max":[1.0,
		1.0,
		1.0]
	},
	{
		"bufferView":14,
		"type":"VEC2",
		"componentType":5126,
		"count":24,
		"min":[0.0,
		0.0],
		"byteOffset":24,
		"max":[1.0,
		1.0]
	}],
	"bufferViews":[{
		"buffer":0,
		"byteOffset":0,
		"byteLength":6020
	},
	{
		"buffer":1,
		"byteOffset":0,
		"byteLength":1308,
		"target":34963
	},
	{
		"buffer":1,
		"byteOffset":1308,
		"byteLength":4440,
		"target":34962,
		"byteStride":20
	},
	{
		"buffer":2,
		"byteOffset":0,
		"byteLength":384,
		"target":34963
	},
	{
		"buffer":2,
		"byteOffset":384,
		"byteLength":1440,
		"target":34962,
		"byteStride":20
	},
	{
		"buffer":3,
		"byteOffset":0,
		"byteLength":192,
		"target":34963
	},
	{
		"buffer":3,
		"byteOffset":192,
		"byteLength":720,
		"target":34962,
		"byteStride":20
	},
	{
		"buffer":4,
		"byteOffset":0,
		"byteLength":192,
		"target":34963
	},
	{
		"buffer":4,
		"byteOffset":192,
		"byteLength":800,
		"target":34962,
		"byteStride":20
	},
	{
		"buffer":5,
		"byteOffset":0,
		"byteLength":732,
		"target":34963
	},
	{
		"buffer":5,
		"byteOffset":732,
		"byteLength":6528,
		"target":34962,
		"byteStride":32
	},
	{
		"buffer":6,
		"byteOffset":0,
		"byteLength":4816
	},
	{
		"buffer":6,
		"byteOffset":4816,
		"byteLength":6020
	},
	{
		"buffer":7,
		"byteOffset":0,
		"byteLength":72,
		"target":34963
	},
	{
		"buffer":7,
		"byteOffset":72,
		"byteLength":768,
		"target":34962,
		"byteStride":32
	}],
	"buffers":[{
		"uri":"data:application/octet-stream;base64,",
		"byteLength":6020
	},
	{
		"uri":"data:application/octet-stream;base64,",
		"byteLength":5748
	},
	{
		"uri":"data:application/octet-stream;base64,",
		"byteLength":1824
	},
	{
		"uri":"data:application/octet-stream;base64,",
		"byteLength":912
	},
	{
		"uri":"data:application/octet-stream;base64,",
		"byteLength":992
	},
	{
		"uri":"data:application/octet-stream;base64,",
		"byteLength":7260
	},
	{
		"uri":"data:application/octet-stream;base64,",
		"byteLength":10836
	},
	{
		"uri":"data:application/octet-stream;base64,",
		"byteLength":840
	}],
	"materials":[{
		"pbrMetallicRoughness":{
			"baseColorFactor":[0.26,
			0.26,
			0.26,
			1.0],
			"metallicFactor":0.0,
			"roughnessFactor":0.5
		},
		"emissiveFactor":[0.0,
		0.0,
		0.0],
		"alphaMode":"OPAQUE",
		"doubleSided":false,
		"name":"black"
	},
	{
		"pbrMetallicRoughness":{
			"baseColorFactor":[1.0,
			0.6499999999999999,
			0.0,
			1.0],
			"metallicFactor":0.0,
			"roughnessFactor":0.5
		},
		"emissiveFactor":[1.0,
		1.0,
		1.0],
		"alphaMode":"OPAQUE",
		"doubleSided":false,
		"name":"lamp"
	},
	{
		"pbrMetallicRoughness":{
			"baseColorFactor":[0.75,
			0.75,
			0.75,
			1.0],
			"metallicFactor":0.0,
			"roughnessFactor":0.5
		},
		"emissiveFactor":[0.0,
		0.0,
		0.0],
		"alphaMode":"OPAQUE",
		"doubleSided":false,
		"name":"black-"
	},
	{
		"pbrMetallicRoughness":{
			"baseColorFactor":[1.0,
			1.0,
			1.0,
			1.0],
			"metallicFactor":0.0,
			"roughnessFactor":0.5
		},
		"emissiveFactor":[0.8980392156862745,
		0.19999999999999999,
		0.16470588235294118],
		"alphaMode":"OPAQUE",
		"doubleSided":false,
		"name":"lamp"
	}],
	"animations":[{
		"samplers":[{
			"output":1,
			"input":0,
			"interpolation":"LINEAR"
		},
		{
			"output":19,
			"input":18,
			"interpolation":"LINEAR"
		},
		{
			"output":21,
			"input":20,
			"interpolation":"LINEAR"
		}],
		"channels":[{
			"sampler":0,
			"target":{
				"node":0,
				"path":"rotation"
			}
		},
		{
			"sampler":1,
			"target":{
				"node":15,
				"path":"translation"
			}
		},
		{
			"sampler":2,
			"target":{
				"node":15,
				"path":"rotation"
			}
		}]
	}]
}