<svg xmlns="http://www.w3.org/2000/svg" width="100" height="100" fill="none"><g clip-path="url(#a)"><mask id="c" width="100" height="100" x="0" y="0" maskUnits="userSpaceOnUse" style="mask-type:alpha"><rect width="100" height="100" fill="url(#b)" rx="25"/></mask><g mask="url(#c)"><path fill="#AD2D2C" d="M0 0h100v100H0z"/></g><path fill="#000" d="M29.516 20.733c2.496 0 4.517 2.133 4.517 4.765v22.575h2.11l-.001-29.728c0-2.632 2.022-4.765 4.517-4.765 2.495 0 4.514 2.133 4.514 4.765v29.728h2.11V12.766C47.283 10.133 49.306 8 51.8 8c2.493 0 4.514 2.133 4.514 4.766v35.307h2.111V18.345c0-2.632 2.024-4.765 4.518-4.765 2.494 0 4.515 2.133 4.515 4.765V61l6.234-9.563c1.358-2.208 4.155-2.837 6.249-1.402 2.092 1.432 2.688 4.383 1.33 6.593 0 0-8.816 16.104-12.729 23.238C64.795 86.263 56.511 92 47.905 92 34.162 92 25.59 81.909 25.59 69.441L25 48.075V25.496c0-2.632 2.024-4.766 4.518-4.766l-.002.003Z"/></g><defs><linearGradient id="b" x1="50" x2="50" y1="0" y2="100" gradientUnits="userSpaceOnUse"><stop stop-color="#2A2040"/><stop offset=".336" stop-color="#29203F"/><stop offset=".654" stop-color="#271E3B"/><stop offset="1" stop-color="#281F3D"/></linearGradient><clipPath id="a"><path fill="#fff" d="M0 0h100v100H0z"/></clipPath></defs></svg>