<svg width="100" height="100" viewBox="0 0 100 100" fill="none" xmlns="http://www.w3.org/2000/svg">
<g clip-path="url(#clip0_1417_8097)">
<g filter="url(#filter0_b_1417_8097)">
<rect width="100" height="100" rx="25" fill="url(#paint0_linear_1417_8097)" fill-opacity="0.5"/>
</g>
<g opacity="0.7">
<path d="M18.5026 20.8286H39.8186L50.2829 49.1209L60.3596 20.8286H82.0632V78.1882H64.2352V47.5706L51.8332 78.1882H46.0197L34.0052 47.5706V78.1882H18.5026V20.8286Z" fill="#090511"/>
<g filter="url(#filter1_d_1417_8097)">
<path d="M19.2778 76.9025V22.3779H39.6388L50.0861 51.4323L60.5335 22.3779H80.5131V76.9025H64.9565V42.9676L51.6113 76.9025H46.4257L33.2331 42.9676V76.9025H19.2778Z" fill="url(#paint1_linear_1417_8097)" fill-opacity="0.1" shape-rendering="crispEdges"/>
<path d="M18.3918 76.9025V77.7885H19.2778H33.2331H34.1191V76.9025V47.6918L45.5999 77.2235L45.8196 77.7885H46.4257H51.6113H52.2149L52.4358 77.2267L64.0705 47.6415V76.9025V77.7885H64.9565H80.5131H81.3991V76.9025V22.3779V21.4919H80.5131H60.5335H59.9105L59.6998 22.0781L50.0861 48.8138L40.4725 22.0781L40.2617 21.4919H39.6388H19.2778H18.3918V22.3779V76.9025Z" stroke="url(#paint2_linear_1417_8097)" stroke-width="1.772" shape-rendering="crispEdges"/>
</g>
</g>
</g>
<defs>
<filter id="filter0_b_1417_8097" x="-25" y="-25" width="150" height="150" filterUnits="userSpaceOnUse" color-interpolation-filters="sRGB">
<feFlood flood-opacity="0" result="BackgroundImageFix"/>
<feGaussianBlur in="BackgroundImageFix" stdDeviation="12.5"/>
<feComposite in2="SourceAlpha" operator="in" result="effect1_backgroundBlur_1417_8097"/>
<feBlend mode="normal" in="SourceGraphic" in2="effect1_backgroundBlur_1417_8097" result="shape"/>
</filter>
<filter id="filter1_d_1417_8097" x="5.87878" y="8.97888" width="88.0334" height="81.3225" filterUnits="userSpaceOnUse" color-interpolation-filters="sRGB">
<feFlood flood-opacity="0" result="BackgroundImageFix"/>
<feColorMatrix in="SourceAlpha" type="matrix" values="0 0 0 0 0 0 0 0 0 0 0 0 0 0 0 0 0 0 127 0" result="hardAlpha"/>
<feOffset/>
<feGaussianBlur stdDeviation="5.81354"/>
<feComposite in2="hardAlpha" operator="out"/>
<feColorMatrix type="matrix" values="0 0 0 0 0.580392 0 0 0 0 0.529412 0 0 0 0 0.968627 0 0 0 0.25 0"/>
<feBlend mode="normal" in2="BackgroundImageFix" result="effect1_dropShadow_1417_8097"/>
<feBlend mode="normal" in="SourceGraphic" in2="effect1_dropShadow_1417_8097" result="shape"/>
</filter>
<linearGradient id="paint0_linear_1417_8097" x1="50" y1="0" x2="50" y2="100" gradientUnits="userSpaceOnUse">
<stop stop-color="#2A2040"/>
<stop offset="0.336458" stop-color="#29203F"/>
<stop offset="0.654167" stop-color="#271E3B"/>
<stop offset="1" stop-color="#281F3D"/>
</linearGradient>
<linearGradient id="paint1_linear_1417_8097" x1="13.1962" y1="51.204" x2="422.23" y2="51.204" gradientUnits="userSpaceOnUse">
<stop stop-color="#9487F7"/>
<stop offset="1" stop-color="#CF99ED"/>
</linearGradient>
<linearGradient id="paint2_linear_1417_8097" x1="13.1962" y1="51.204" x2="422.23" y2="51.204" gradientUnits="userSpaceOnUse">
<stop stop-color="#9487F7"/>
<stop offset="1" stop-color="#CF99ED"/>
</linearGradient>
<clipPath id="clip0_1417_8097">
<rect width="100" height="100" fill="white"/>
</clipPath>
</defs>
</svg>
