<svg xmlns="http://www.w3.org/2000/svg" width="100" height="100" fill="none"><g clip-path="url(#a)"><g filter="url(#b)"><rect width="100" height="100" fill="url(#c)" fill-opacity=".5" rx="25"/></g><g opacity=".7"><path fill="#090511" d="M18.503 20.829h21.316L50.283 49.12 60.36 20.829h21.703v57.36H64.235V47.57L51.833 78.188H46.02L34.005 47.571v30.617H18.503v-57.36Z"/><g filter="url(#d)" shape-rendering="crispEdges"><path fill="url(#e)" fill-opacity=".1" d="M19.278 76.903V22.378h20.36l10.448 29.054 10.447-29.054h19.98v54.525H64.957V42.968L51.61 76.902h-5.185L33.233 42.969v33.934H19.278Z"/><path stroke="url(#f)" stroke-width="1.772" d="M18.392 76.903v.885H34.119V47.692L45.6 77.224l.22.564h6.396l.22-.561L64.07 47.64V77.788H81.4V21.492H59.91l-.21.586-9.614 26.736-9.614-26.736-.21-.586h-21.87v55.411Z"/></g></g></g><defs><linearGradient id="c" x1="50" x2="50" y1="0" y2="100" gradientUnits="userSpaceOnUse"><stop stop-color="#2A2040"/><stop offset=".336" stop-color="#29203F"/><stop offset=".654" stop-color="#271E3B"/><stop offset="1" stop-color="#281F3D"/></linearGradient><linearGradient id="e" x1="13.196" x2="422.23" y1="51.204" y2="51.204" gradientUnits="userSpaceOnUse"><stop stop-color="#9487F7"/><stop offset="1" stop-color="#CF99ED"/></linearGradient><linearGradient id="f" x1="13.196" x2="422.23" y1="51.204" y2="51.204" gradientUnits="userSpaceOnUse"><stop stop-color="#9487F7"/><stop offset="1" stop-color="#CF99ED"/></linearGradient><filter id="b" width="150" height="150" x="-25" y="-25" color-interpolation-filters="sRGB" filterUnits="userSpaceOnUse"><feFlood flood-opacity="0" result="BackgroundImageFix"/><feGaussianBlur in="BackgroundImageFix" stdDeviation="12.5"/><feComposite in2="SourceAlpha" operator="in" result="effect1_backgroundBlur_1417_8097"/><feBlend in="SourceGraphic" in2="effect1_backgroundBlur_1417_8097" result="shape"/></filter><filter id="d" width="88.033" height="81.323" x="5.879" y="8.979" color-interpolation-filters="sRGB" filterUnits="userSpaceOnUse"><feFlood flood-opacity="0" result="BackgroundImageFix"/><feColorMatrix in="SourceAlpha" result="hardAlpha" values="0 0 0 0 0 0 0 0 0 0 0 0 0 0 0 0 0 0 127 0"/><feOffset/><feGaussianBlur stdDeviation="5.814"/><feComposite in2="hardAlpha" operator="out"/><feColorMatrix values="0 0 0 0 0.580392 0 0 0 0 0.529412 0 0 0 0 0.968627 0 0 0 0.25 0"/><feBlend in2="BackgroundImageFix" result="effect1_dropShadow_1417_8097"/><feBlend in="SourceGraphic" in2="effect1_dropShadow_1417_8097" result="shape"/></filter><clipPath id="a"><path fill="#fff" d="M0 0h100v100H0z"/></clipPath></defs></svg>