<svg xmlns="http://www.w3.org/2000/svg" width="100" height="100" fill="none"><g clip-path="url(#a)"><mask id="c" width="100" height="100" x="0" y="0" maskUnits="userSpaceOnUse" style="mask-type:alpha"><rect width="100" height="100" fill="url(#b)" rx="25"/></mask><g mask="url(#c)"><path fill="#fff" d="M0 0h100v100H0z"/></g><path fill="#000" d="M75.169 80h-12.35L46.525 57.313h-7.445V80H28.569V18.247h22.775c4.204 0 7.97.847 11.299 2.54 3.329 1.635 5.927 3.942 7.796 6.92 1.868 2.92 2.803 6.278 2.803 10.073 0 4.614-1.402 8.614-4.205 12-2.744 3.329-6.423 5.577-11.036 6.745L75.169 80ZM39.08 27.882v19.796h12.263c3.27 0 5.927-.905 7.97-2.715 2.103-1.869 3.154-4.263 3.154-7.183s-1.051-5.284-3.154-7.095c-2.043-1.868-4.7-2.803-7.97-2.803H39.08Z"/></g><defs><linearGradient id="b" x1="50" x2="50" y1="0" y2="100" gradientUnits="userSpaceOnUse"><stop stop-color="#2A2040"/><stop offset=".336" stop-color="#29203F"/><stop offset=".654" stop-color="#271E3B"/><stop offset="1" stop-color="#281F3D"/></linearGradient><clipPath id="a"><path fill="#fff" d="M0 0h100v100H0z"/></clipPath></defs></svg>