<svg xmlns="http://www.w3.org/2000/svg" width="100" height="100" fill="none"><g clip-path="url(#a)"><mask id="c" width="100" height="100" x="0" y="0" maskUnits="userSpaceOnUse" style="mask-type:alpha"><rect width="100" height="100" fill="url(#b)" rx="25"/></mask><g mask="url(#c)"><rect width="100" height="100" fill="#7D756F" rx="2.913"/></g><path fill="#fff" d="M64.24 42.946c.85 6.056-5.89 13.761-8.286 16.195-3.504 3.56-7.17 6.472-11.107 8.728-5.931 3.397-10.065 4.87-14.98 6.998-1.322.536-1.834 3.113-2.52 3.209-3.77.53-10.064 1.765-12.524.42-.514-.126-.38-.937-.373-1.2.24-1.083 4.165-4.256 5.493-4.442.5-.071 1.213.144 1.816.18 1.5.096 2.954-.02 4.352-.13.282-.022.61-.229 1.543-.523 1.457-.459 3.958-1.1 6.19-1.976 2.538-.998 6.546-3.01 9.098-4.483 5.065-2.926 15.94-10.105 16.667-17.374.393-3.927-2.782-6.95-6.157-8.572-2.983-1.329-5.682-1.882-9.328-2.534-2.724-.488-6.761-.856-8.1-.843-.9.134-1.466.7-1.585 1.155-.052 1.289-.012 4.75-.196 11.038-.12 4.124-.77 12.343-1.108 13.673-.131.515.41 1.813.238 2.937-.231 1.513-2.993 2.985-4.564 4.836-.283.334-.614 1.018-1.128 1.09-.4.057-.454-.203-.771-.8-.228-.43-.407-1.178-.628-1.566-.419-.734-1.3-1.083-1.629-1.573-.136-.204-.107-.523-.021-.758.223-.611 1.484-1.951 2.463-3.201.497-.635 1.014-1.254 1.097-1.727.425-2.4.368-4.68.407-7.048.093-5.407-.09-10.35-.615-16.11-.077-.847-.909-2.029-1.276-2.326-.647-.524-3.268-.23-4.006.097-2.303 1.023-3.992 1.843-4.908 1.972-.51.072-3.441-.545-5.88-.804-2.21-.235-3.631-.213-3.755-.306-.525-.396-.52-.767-.677-1.399-.286-1.138-.515-2.699-.478-2.966.02-.146.015-.45.178-.704.49-.76 1.745-1.78 2.365-1.926.217-.051.707-.216 1.502-.094.596.091 2.579.535 3.984.773 2.641.45 5.354.759 7.385 1.358.489.235.681.369 1.271.346.766-.03 1.933-.272 2.514-.354.343-.049.96-.485.932-.83-.018-.218.085-.7.043-.938-.282-1.592-1.053-4.17-1.294-5.061-.095-.35.006-1.185.323-1.655 1.439-1.564 3.124-2.973 4.576-3.695.335-.105.609.048.75.361 1.361 3.03 1.378 7.298 2.098 10.367.145.62 1.23 1.283 1.963 1.53 8.468.557 12.23.664 20.366 2.73 6.646 1.689 7.895 5.183 8.28 7.925Zm7.817 7.191c-.643-.466-1.358-.003-2.202-.352-1.012-.417-.63-1.214-1.756-1.123-2.429.195-2.987.623-3.562 1.572-.382.63-.405 1.195-.578 1.981-.16.727-.372 1.454-.369 2.274.007 1.386 1.838 1.829 1.601 3.746-.403 3.262-6.125 6.762-10.476 8.537-2.634 1.074-4.38 1.394-4.545 1.727 0 0-1.35 1.44-.756 1.871.149.583 4.794-1.336 9.136-3.724 2.562-1.409 6.357-4.117 7.139-3.891 1.64.398 1.864 4.972 4.047 6.193 3.172 1.775 10.484-2.188 14.083-5.122 2.134-1.74 3.522-3.283 5.028-5.045 1.187-1.39 3.643-4.652 3.11-4.699-.247-.18-3.153.28-4.027 1.952-1.22 2.332-3.28 5.295-6.664 7.714-1.036.741-2.662 1.76-4.134 1.838-2.91.154-4.066-3.343-4.445-5.736-.317-2-.257-5.599-.298-7.833-.02-1.009-.06-1.681-.332-1.88ZM92.08 67.193c.863-1.188 1.384-2.322 1.168-3.69-.505-.97-1.801-2.518-3.06-1.617-.901.643-1.413 1.494-2.04 2.337-.686.926-1.59 1.798-2.043 2.865-.478 1.127 1.009 1.944 2.089 2.123 1.422.125 3.023-.83 3.886-2.018Z"/></g><defs><linearGradient id="b" x1="50" x2="50" y1="0" y2="100" gradientUnits="userSpaceOnUse"><stop stop-color="#2A2040"/><stop offset=".336" stop-color="#29203F"/><stop offset=".654" stop-color="#271E3B"/><stop offset="1" stop-color="#281F3D"/></linearGradient><clipPath id="a"><path fill="#fff" d="M0 0h100v100H0z"/></clipPath></defs></svg>