<svg xmlns="http://www.w3.org/2000/svg" width="100" height="100" fill="none"><g clip-path="url(#a)"><rect width="99.998" height="99.998" y=".002" fill="#F5FD5A" rx="24.999"/><path fill="#000" fill-rule="evenodd" d="M49.07 50.976a1.83 1.83 0 0 0 3.066 0L69.871 23.8h6.003a7.776 7.776 0 0 1 7.776 7.776v46.187a7.776 7.776 0 0 1-7.776 7.776h-51.1A7.776 7.776 0 0 1 17 77.763V31.576a7.776 7.776 0 0 1 7.776-7.776h6.558L49.07 50.976ZM31.335 23.8l-3.896-5.97c-.795-1.217.079-2.83 1.532-2.83h43.266c1.453 0 2.327 1.613 1.532 2.83l-3.896 5.97H31.334Z" clip-rule="evenodd"/></g><defs><clipPath id="a"><path fill="#fff" d="M0 0h100v100H0z"/></clipPath></defs></svg>