<svg xmlns="http://www.w3.org/2000/svg" width="123" height="141" fill="none"><path fill="#fff" d="m61.426.807 61.426 34.831v69.678l-61.426 34.832L0 105.316V35.638L61.426.807Z"/><path fill="#8ED6FB" d="m111.884 102.914-48.426 27.464v-21.386L93.63 92.348l18.253 10.566Zm3.318-3.007V42.48L97.488 52.744v36.915l17.714 10.248Zm-104.425 3.007 48.427 27.464v-21.386l-30.19-16.644-18.237 10.566ZM7.46 99.907V42.48l17.714 10.264v36.915L7.46 99.907Zm2.08-61.15 49.664-28.164v20.67L27.38 48.812l-.254.143L9.539 38.758Zm103.582 0L63.458 10.593v20.67l31.824 17.534.254.144 17.586-10.184Z"/><path fill="#1C78C0" d="M59.204 104.123 29.427 87.702V55.194l29.777 17.233v31.696Zm4.254 0 29.776-16.405V55.194L63.458 72.427v31.696ZM31.443 51.439l29.888-16.47 29.888 16.47L61.33 68.735 31.443 51.439Z"/></svg>